<svg width="651" height="621" viewBox="0 0 651 621" fill="none" xmlns="http://www.w3.org/2000/svg">
<g clip-path="url(#clip0_643_2)">
<path d="M124.153 423.957C123.322 424.372 122.39 424.508 121.483 424.345C120.576 424.182 119.739 423.728 119.084 423.044C118.43 422.361 117.99 421.481 117.824 420.524C117.658 419.567 117.774 418.58 118.156 417.695C118.087 417.21 118.037 416.862 117.968 416.377C117.893 416.298 117.818 416.219 117.743 416.141C110.135 408.215 97.2481 413.989 97.2728 425.283C97.2947 435.307 96.4063 445.751 98.9236 455.247C100.038 459.444 101.832 463.405 104.227 466.953C89.1715 452.263 77.2787 434.321 69.3544 414.344C67.3709 409.328 65.654 404.2 64.2118 398.982C63.033 394.702 62.0345 390.378 61.2164 386.007C56.8013 362.284 57.7696 337.791 64.0419 314.54C68.9592 308.048 71.8769 300.118 72.402 291.819C72.5999 288.832 72.3878 285.83 71.7725 282.906C71.0934 283.324 70.3876 283.709 69.6888 284.076C69.4698 284.188 69.2392 284.304 69.0203 284.416L68.9375 284.457C68.1626 284.844 67.2986 284.985 66.4494 284.864C65.6003 284.743 64.8023 284.366 64.1515 283.776C63.5007 283.187 63.0248 282.411 62.7811 281.543C62.5374 280.674 62.5363 279.749 62.778 278.88C62.9286 278.339 63.0796 277.798 63.2308 277.257C63.4558 276.426 63.6976 275.602 63.9226 274.771C63.9536 274.688 63.9801 274.603 64.0019 274.516C64.2632 273.566 64.5293 272.629 64.7906 271.679C63.1599 270.493 61.2922 269.721 59.3331 269.423C52.5736 268.46 46.0024 274.101 44.1326 281.03C42.2511 287.965 44.3888 295.581 48.3199 301.469C51.6817 306.51 56.2393 310.481 61.0167 314.062C60.8797 314.591 60.726 315.113 60.5891 315.642C58.0986 325.343 56.5131 335.278 55.8552 345.306C53.1424 335.597 48.289 326.707 41.6942 319.369C35.2917 312.643 26.6087 308.433 18.5674 303.726C8.90852 298.073 -2.59697 307.489 0.520435 318.69C0.550624 318.798 0.581048 318.907 0.611715 319.015C1.57767 319.136 2.53844 319.292 3.49398 319.485C4.69707 319.734 5.801 320.362 6.66116 321.286C7.52131 322.209 8.09756 323.387 8.3144 324.663C8.53124 325.939 8.37856 327.255 7.87636 328.437C7.37416 329.62 6.54589 330.615 5.50002 331.291L5.39292 331.361C6.84869 334.217 8.50769 336.953 10.3555 339.543C15.5885 346.743 22.1712 352.721 29.6909 357.103C37.2106 361.486 45.5053 364.178 54.0547 365.01C54.6126 365.057 55.1587 365.108 55.7117 365.142C56.44 378.733 58.8362 392.167 62.84 405.105C65.2246 412.728 68.1881 420.135 71.7016 427.253L71.5629 427.007C66.8118 419.465 59.7455 413.889 51.5574 411.219C39.4413 407.369 25.5582 410.116 13.3387 408.118C7.45667 407.156 3.00267 413.728 6.08962 419.11C6.13888 419.196 6.18837 419.282 6.23809 419.368C7.93551 419.351 9.63223 419.447 11.3184 419.654C12.2844 419.775 13.2452 419.932 14.2007 420.124C15.4038 420.373 16.5078 421.001 17.3679 421.925C18.2281 422.848 18.8043 424.026 19.0212 425.302C19.238 426.578 19.0853 427.894 18.5831 429.077C18.0809 430.259 17.2526 431.254 16.2068 431.931L16.0995 432C16.0221 432.049 15.9563 432.093 15.8789 432.141C20.8304 437.305 26.5853 441.529 32.8915 444.627C40.6327 448.331 49.0074 450.323 57.5022 450.481C65.9971 450.64 74.433 448.961 82.2927 445.549L82.3045 445.543C88.2968 454.383 95.1414 462.54 102.728 469.884L135.593 455.357C135.558 454.918 135.506 454.473 135.46 454.04C132.498 455.587 129.368 456.744 126.14 457.486C127.328 453.244 128.506 448.977 129.694 444.734C129.725 444.651 129.751 444.566 129.773 444.48C130.37 442.313 130.983 440.154 131.58 437.988L131.58 437.986C129.684 432.992 127.189 428.277 124.155 423.957L124.153 423.957ZM55.5801 362.287L55.5877 362.255L55.59 362.312L55.5801 362.287ZM75.7249 434.914L75.1764 434.367C74.9962 433.875 74.8042 433.389 74.5955 432.896C74.5413 432.759 74.4637 432.633 74.4095 432.496C74.8551 433.308 75.2891 434.126 75.7465 434.934L75.7249 434.914Z" fill="#F2F2F2"/>
<path d="M425.736 185.076C424.511 190.299 423.928 195.668 423.999 201.048L424 201.051C425.34 202.806 426.694 204.548 428.034 206.303C428.086 206.374 428.141 206.442 428.2 206.506C430.843 209.936 433.485 213.392 436.128 216.822C432.879 217.454 429.569 217.663 426.272 217.443C426.387 217.862 426.502 218.294 426.63 218.713H462.249C466.572 208.843 469.913 198.525 472.219 187.925H472.232C480.728 187.868 489.124 185.977 496.904 182.366C504.684 178.755 511.685 173.502 517.477 166.928C522.166 161.497 525.936 155.253 528.622 148.469C528.533 148.455 528.457 148.442 528.367 148.428L528.243 148.408C527.031 148.211 525.905 147.631 525.01 146.744C524.115 145.857 523.495 144.706 523.23 143.44C522.965 142.174 523.067 140.853 523.524 139.649C523.981 138.446 524.771 137.417 525.79 136.697C526.601 136.13 527.43 135.593 528.278 135.087C529.758 134.209 531.289 133.428 532.861 132.751C532.876 132.652 532.89 132.552 532.904 132.453C533.79 126.228 527.285 121.981 522.208 125.267C511.662 132.094 497.851 135.222 488.076 143.716C481.494 149.518 477.007 157.545 475.373 166.442L475.334 166.725C475.981 158.725 476.016 150.682 475.437 142.676C474.414 129.106 471.728 115.733 467.445 102.896C467.943 102.639 468.428 102.369 468.926 102.099C476.51 97.8436 483.182 91.9769 488.523 84.8666C493.863 77.7563 497.758 69.5557 499.961 60.7789C500.722 57.635 501.255 54.4345 501.557 51.2051L501.433 51.1848C500.222 50.9873 499.095 50.4072 498.2 49.5207C497.305 48.6341 496.685 47.4824 496.42 46.2165C496.155 44.9506 496.257 43.6295 496.714 42.4263C497.171 41.223 497.961 40.1938 498.98 39.4735C499.791 38.9065 500.62 38.3699 501.468 37.8639C501.457 37.7515 501.445 37.6392 501.434 37.5269C500.227 25.9209 486.178 21.9252 479.327 31.0807C473.624 38.7029 467.147 46.1286 463.691 54.9455C460.282 64.4062 459.045 74.5878 460.081 84.6528C455.818 75.6685 450.733 67.1477 444.899 59.2125C444.58 58.7804 444.248 58.3618 443.929 57.9296C447.031 52.677 449.788 47.1541 451.052 41.1317C452.533 34.0966 451.729 26.197 447.465 20.5663C443.214 14.9354 435.094 12.4104 429.209 16.0562C427.509 17.1297 426.068 18.6038 424.996 20.3636C425.583 21.1333 426.17 21.8895 426.757 22.6592C426.809 22.73 426.864 22.7977 426.923 22.8618C427.434 23.5369 427.957 24.1986 428.468 24.8738C428.805 25.3109 429.141 25.7484 429.478 26.1862C430.017 26.8898 430.354 27.7435 430.445 28.6444C430.537 29.5454 430.381 30.4552 429.995 31.2644C429.61 32.0735 429.011 32.7476 428.272 33.2053C427.532 33.663 426.683 33.8849 425.828 33.8443L425.736 33.8399C425.493 33.8264 425.238 33.8128 424.996 33.7994C424.217 33.7454 423.425 33.6779 422.646 33.5699C423.144 36.518 424.043 39.3743 425.315 42.05C428.825 49.4935 434.408 55.6201 441.311 59.6042C455.575 78.499 465.397 100.703 469.972 124.393C470.815 128.754 471.47 133.152 471.939 137.585C472.51 142.988 472.796 148.42 472.794 153.857C472.765 175.521 468.333 196.926 459.797 216.62C460.713 212.369 460.925 207.983 460.423 203.657C459.284 193.868 454.657 184.595 451.023 175.337C446.928 164.906 432.932 164.834 428.803 175.25C428.762 175.353 428.721 175.456 428.681 175.56C428.794 176.035 428.875 176.377 428.988 176.852C429.663 177.513 430.131 178.377 430.326 179.327C430.522 180.278 430.436 181.269 430.082 182.166C429.727 183.064 429.12 183.824 428.343 184.345C427.565 184.865 426.656 185.12 425.737 185.075L425.736 185.076ZM466.526 100.235L466.507 100.182L466.526 100.208V100.235ZM474.403 175.462C474.53 174.53 474.632 173.598 474.747 172.667C474.747 172.815 474.722 172.964 474.722 173.112C474.709 173.652 474.709 174.179 474.722 174.706L474.415 175.435L474.403 175.462Z" fill="#F2F2F2"/>
<path d="M389.85 417.228H280.879C279.337 417.23 277.86 417.88 276.771 419.034C275.682 420.189 275.072 421.753 275.073 423.384V605.459H395.671V423.384C395.671 422.575 395.521 421.774 395.229 421.027C394.936 420.28 394.507 419.601 393.967 419.03C393.426 418.458 392.785 418.004 392.078 417.695C391.372 417.386 390.615 417.227 389.85 417.228ZM335.731 520.68C332.323 520.663 329.06 519.224 326.65 516.675C324.24 514.127 322.879 510.675 322.863 507.07V486.069C322.863 482.46 324.219 478.998 326.632 476.446C329.045 473.893 332.318 472.459 335.731 472.459C339.144 472.459 342.417 473.893 344.83 476.446C347.243 478.998 348.599 482.46 348.599 486.069V507.07C348.583 510.675 347.222 514.127 344.812 516.675C342.403 519.224 339.139 520.663 335.731 520.68Z" fill="#E6E6E6"/>
<path d="M274.699 599.635V617.202C274.701 618.112 275.044 618.984 275.652 619.628C276.261 620.271 277.086 620.634 277.946 620.636H392.798C393.658 620.631 394.481 620.268 395.089 619.625C395.697 618.982 396.04 618.111 396.045 617.202V599.635L274.699 599.635Z" fill="#CCCCCC"/>
<path d="M570.298 133.079H104.487C100.485 133.086 96.6485 134.77 93.8186 137.763C90.9887 140.757 89.396 144.814 89.3896 149.047V481.514C89.3935 485.748 90.9853 489.807 93.8158 492.801C96.6462 495.794 100.484 497.478 104.487 497.482H570.298C574.301 497.478 578.139 495.794 580.969 492.801C583.8 489.807 585.391 485.748 585.395 481.514V149.047C585.389 144.814 583.796 140.757 580.966 137.763C578.136 134.77 574.3 133.086 570.298 133.079Z" fill="#E6E6E6"/>
<path d="M566.408 144.608H108.38C106.237 144.614 104.183 145.518 102.669 147.123C101.155 148.728 100.305 150.902 100.305 153.169V477.393C100.307 479.657 101.159 481.828 102.673 483.43C104.187 485.031 106.239 485.932 108.38 485.934H566.408C568.549 485.932 570.602 485.031 572.116 483.43C573.63 481.828 574.481 479.657 574.484 477.393V153.169C574.483 150.902 573.633 148.728 572.119 147.123C570.605 145.518 568.552 144.614 566.408 144.608Z" fill="white"/>
<path d="M158.618 467.348C158.628 473.694 157.559 479.99 155.462 485.936H108.379C106.238 485.932 104.187 485.031 102.674 483.431C101.16 481.83 100.308 479.66 100.305 477.396V414.76C102.935 414.31 105.596 414.084 108.261 414.085C114.874 414.085 121.423 415.462 127.532 418.139C133.642 420.815 139.194 424.738 143.87 429.684C148.546 434.63 152.255 440.502 154.786 446.964C157.316 453.427 158.619 460.353 158.618 467.348Z" fill="#F55053"/>
<path d="M574.483 153.17V435.374C539.241 446.24 501.611 444.664 467.291 430.887C432.971 417.109 403.83 391.88 384.279 359.018C364.728 326.156 355.832 287.451 358.938 248.764C362.044 210.076 376.983 173.513 401.493 144.608H566.408C568.551 144.614 570.605 145.518 572.119 147.123C573.633 148.728 574.483 150.902 574.483 153.17Z" fill="#E6E6E6"/>
<path d="M543.385 189.284H114.807C114.361 189.274 113.937 189.079 113.625 188.742C113.313 188.405 113.139 187.953 113.139 187.481C113.139 187.01 113.313 186.557 113.625 186.22C113.937 185.883 114.361 185.689 114.807 185.678H543.385C543.831 185.689 544.255 185.883 544.567 186.22C544.879 186.557 545.053 187.01 545.053 187.481C545.053 187.953 544.879 188.405 544.567 188.742C544.255 189.079 543.831 189.274 543.385 189.284Z" fill="#CACACA"/>
<path d="M143.981 176.474C149.498 176.474 153.97 171.639 153.97 165.674C153.97 159.71 149.498 154.875 143.981 154.875C138.465 154.875 133.993 159.71 133.993 165.674C133.993 171.639 138.465 176.474 143.981 176.474Z" fill="#3F3D56"/>
<path d="M178.485 176.474C184.002 176.474 188.473 171.639 188.473 165.674C188.473 159.71 184.002 154.875 178.485 154.875C172.969 154.875 168.497 159.71 168.497 165.674C168.497 171.639 172.969 176.474 178.485 176.474Z" fill="#3F3D56"/>
<path d="M212.99 176.474C218.507 176.474 222.978 171.639 222.978 165.674C222.978 159.71 218.507 154.875 212.99 154.875C207.474 154.875 203.002 159.71 203.002 165.674C203.002 171.639 207.474 176.474 212.99 176.474Z" fill="#3F3D56"/>
<path d="M522.61 157.551H498.1C497.614 157.562 497.151 157.773 496.811 158.14C496.471 158.507 496.28 159 496.28 159.514C496.28 160.028 496.471 160.522 496.811 160.889C497.151 161.256 497.614 161.467 498.1 161.477H522.61C523.096 161.467 523.558 161.256 523.899 160.889C524.239 160.522 524.429 160.028 524.429 159.514C524.429 159 524.239 158.507 523.899 158.14C523.558 157.773 523.096 157.562 522.61 157.551Z" fill="#3F3D56"/>
<path d="M522.61 164.92H498.1C497.614 164.93 497.151 165.141 496.811 165.508C496.471 165.875 496.28 166.369 496.28 166.883C496.28 167.397 496.471 167.89 496.811 168.257C497.151 168.624 497.614 168.835 498.1 168.846H522.61C523.096 168.835 523.558 168.624 523.899 168.257C524.239 167.89 524.429 167.397 524.429 166.883C524.429 166.369 524.239 165.875 523.899 165.508C523.558 165.141 523.096 164.93 522.61 164.92Z" fill="#3F3D56"/>
<path d="M522.61 172.278H498.1C497.614 172.289 497.151 172.5 496.811 172.867C496.471 173.234 496.28 173.727 496.28 174.241C496.28 174.755 496.471 175.249 496.811 175.616C497.151 175.983 497.614 176.194 498.1 176.204H522.61C523.096 176.194 523.558 175.983 523.899 175.616C524.239 175.249 524.429 174.755 524.429 174.241C524.429 173.727 524.239 173.234 523.899 172.867C523.558 172.5 523.096 172.289 522.61 172.278Z" fill="#3F3D56"/>
<path d="M294.316 64.6379C295.825 61.2719 288.831 54.4209 278.694 49.3356C268.557 44.2503 259.115 42.8564 257.606 46.2224C256.097 49.5884 263.091 56.4395 273.228 61.5248C283.365 66.6101 292.807 68.0039 294.316 64.6379Z" fill="#2F2E41"/>
<path d="M377.978 99.3066C380.679 96.9151 377.029 87.6004 369.827 78.5016C362.624 69.4029 354.596 63.9656 351.896 66.3572C349.195 68.7487 352.845 78.0634 360.047 87.1622C367.25 96.2609 375.278 101.698 377.978 99.3066Z" fill="#2F2E41"/>
<path d="M321.723 118.344C344.162 118.344 362.353 99.104 362.353 75.3703C362.353 51.6366 344.162 32.3966 321.723 32.3966C299.284 32.3966 281.094 51.6366 281.094 75.3703C281.094 99.104 299.284 118.344 321.723 118.344Z" fill="#2F2E41"/>
<path d="M338.92 109.096H326.577V132.487H338.92V109.096Z" fill="#2F2E41"/>
<path d="M314.234 109.096H301.891V132.487H314.234V109.096Z" fill="#2F2E41"/>
<path d="M328.634 136.839C334.314 136.839 338.92 135.012 338.92 132.759C338.92 130.506 334.314 128.679 328.634 128.679C322.953 128.679 318.348 130.506 318.348 132.759C318.348 135.012 322.953 136.839 328.634 136.839Z" fill="#2F2E41"/>
<path d="M303.948 136.295C309.629 136.295 314.234 134.468 314.234 132.215C314.234 129.962 309.629 128.135 303.948 128.135C298.267 128.135 293.662 129.962 293.662 132.215C293.662 134.468 298.267 136.295 303.948 136.295Z" fill="#2F2E41"/>
<path d="M308.965 21.3511C312.593 5.89777 328.607 -3.19618 344.734 1.03919C360.86 5.27456 370.993 21.2355 367.365 36.6888C363.737 52.1421 351.701 52.192 335.574 47.9566C319.448 43.7212 305.337 36.8044 308.965 21.3511Z" fill="#E6E6E6"/>
<path d="M315.648 80.6299C323.13 80.6299 329.194 74.2153 329.194 66.3025C329.194 58.3897 323.13 51.9751 315.648 51.9751C308.167 51.9751 302.103 58.3897 302.103 66.3025C302.103 74.2153 308.167 80.6299 315.648 80.6299Z" fill="white"/>
<path d="M314.799 76.9187C317.292 76.9187 319.314 74.7805 319.314 72.1429C319.314 69.5053 317.292 67.3671 314.799 67.3671C312.305 67.3671 310.283 69.5053 310.283 72.1429C310.283 74.7805 312.305 76.9187 314.799 76.9187Z" fill="#3F3D56"/>
<path d="M332.861 92.2423C333.754 97.4322 321.786 106.316 316.879 107.261C314.523 107.714 312.092 107.159 310.123 105.718C308.153 104.276 306.806 102.066 306.377 99.5742L306.374 99.5557C305.485 94.3649 309.28 92.528 314.187 91.5883C319.095 90.6486 331.972 87.0515 332.861 92.2423Z" fill="white"/>
<path d="M476.782 393.275C483.619 383.866 486.898 374.399 484.106 372.128C481.313 369.858 473.507 375.645 466.669 385.053C459.832 394.462 456.553 403.93 459.345 406.2C462.138 408.47 469.945 402.683 476.782 393.275Z" fill="#2F2E41"/>
<path d="M513.996 424.676C536.435 424.676 554.625 405.436 554.625 381.703C554.625 357.969 536.435 338.729 513.996 338.729C491.557 338.729 473.366 357.969 473.366 381.703C473.366 405.436 491.557 424.676 513.996 424.676Z" fill="#2F2E41"/>
<path d="M532.511 415.429H520.168V438.819H532.511V415.429Z" fill="#2F2E41"/>
<path d="M507.825 415.429H495.481V438.819H507.825V415.429Z" fill="#2F2E41"/>
<path d="M522.224 443.171C527.905 443.171 532.51 441.344 532.51 439.091C532.51 436.838 527.905 435.011 522.224 435.011C516.544 435.011 511.938 436.838 511.938 439.091C511.938 441.344 516.544 443.171 522.224 443.171Z" fill="#2F2E41"/>
<path d="M497.539 442.627C503.22 442.627 507.825 440.801 507.825 438.547C507.825 436.294 503.22 434.468 497.539 434.468C491.858 434.468 487.253 436.294 487.253 438.547C487.253 440.801 491.858 442.627 497.539 442.627Z" fill="#2F2E41"/>
<path d="M512.967 385.51C520.636 385.51 526.853 378.935 526.853 370.823C526.853 362.712 520.636 356.136 512.967 356.136C505.298 356.136 499.081 362.712 499.081 370.823C499.081 378.935 505.298 385.51 512.967 385.51Z" fill="white"/>
<path d="M512.024 382.704C514.581 382.704 516.653 380.512 516.653 377.808C516.653 375.104 514.581 372.912 512.024 372.912C509.468 372.912 507.396 375.104 507.396 377.808C507.396 380.512 509.468 382.704 512.024 382.704Z" fill="#3F3D56"/>
<path d="M553.408 341.738C556.689 326.198 546.202 310.496 529.985 306.666C513.768 302.836 497.962 312.329 494.682 327.868C491.401 343.408 502.149 349.14 518.365 352.97C534.582 356.8 550.128 357.278 553.408 341.738Z" fill="#F55053"/>
<path d="M562.019 419.013C565.188 417.388 563.788 407.414 558.893 396.737C553.997 386.059 547.459 378.721 544.29 380.346C541.121 381.972 542.52 391.946 547.416 402.623C552.312 413.301 558.85 420.639 562.019 419.013Z" fill="#2F2E41"/>
<path d="M533.953 397.206C533.953 401.412 523.714 409.717 512.352 409.717C500.991 409.717 490.338 397.876 490.338 393.67C490.338 389.464 500.991 394.486 512.352 394.486C523.714 394.486 533.953 393 533.953 397.206Z" fill="white"/>
<path d="M483.536 569.361C505.975 569.361 524.165 550.121 524.165 526.387C524.165 502.653 505.975 483.413 483.536 483.413C461.097 483.413 442.906 502.653 442.906 526.387C442.906 550.121 461.097 569.361 483.536 569.361Z" fill="#2F2E41"/>
<path d="M477.365 560.113H465.021V583.504H477.365V560.113Z" fill="#2F2E41"/>
<path d="M502.051 560.113H489.708V583.504H502.051V560.113Z" fill="#2F2E41"/>
<path d="M483.665 591.415C484.575 589.377 481.148 585.646 476.011 583.08C470.874 580.515 465.973 580.087 465.063 582.124C464.153 584.161 467.58 587.893 472.717 590.459C477.854 593.024 482.756 593.452 483.665 591.415Z" fill="#2F2E41"/>
<path d="M508.583 590.311C509.383 588.223 505.764 584.701 500.499 582.444C495.234 580.188 490.317 580.051 489.517 582.139C488.717 584.228 492.336 587.75 497.601 590.007C502.866 592.263 507.783 592.4 508.583 590.311Z" fill="#2F2E41"/>
<path d="M444.124 486.423C440.843 470.883 451.33 455.18 467.547 451.35C483.764 447.52 499.57 457.013 502.851 472.553C506.131 488.093 495.384 493.824 479.167 497.654C462.95 501.484 447.405 501.963 444.124 486.423Z" fill="#F55053"/>
<path d="M531.833 508.748C535.889 496.3 536.182 485.117 532.487 483.77C528.793 482.423 522.509 491.423 518.453 503.871C514.397 516.319 514.105 527.502 517.799 528.849C521.494 530.196 527.777 521.196 531.833 508.748Z" fill="#2F2E41"/>
<path d="M450.787 522.176C453.552 519.254 448.66 509.336 439.861 500.022C431.062 490.708 421.688 485.526 418.923 488.448C416.159 491.369 421.051 501.288 429.85 510.602C438.649 519.916 448.023 525.098 450.787 522.176Z" fill="#2F2E41"/>
<path d="M176.062 602.505C198.501 602.505 216.692 583.265 216.692 559.531C216.692 535.798 198.501 516.558 176.062 516.558C153.623 516.558 135.433 535.798 135.433 559.531C135.433 583.265 153.623 602.505 176.062 602.505Z" fill="#2F2E41"/>
<path d="M169.891 593.257H157.548V616.648H169.891V593.257Z" fill="#2F2E41"/>
<path d="M194.578 593.257H182.234V616.648H194.578V593.257Z" fill="#2F2E41"/>
<path d="M167.834 621C173.515 621 178.12 619.173 178.12 616.92C178.12 614.667 173.515 612.841 167.834 612.841C162.153 612.841 157.548 614.667 157.548 616.92C157.548 619.173 162.153 621 167.834 621Z" fill="#2F2E41"/>
<path d="M192.52 620.456C198.201 620.456 202.806 618.629 202.806 616.376C202.806 614.123 198.201 612.296 192.52 612.296C186.84 612.296 182.234 614.123 182.234 616.376C182.234 618.629 186.84 620.456 192.52 620.456Z" fill="#2F2E41"/>
<path d="M136.65 519.567C133.37 504.027 143.857 488.325 160.074 484.495C176.291 480.665 192.097 490.158 195.377 505.697C198.658 521.237 187.91 526.969 171.693 530.799C155.476 534.629 139.931 535.107 136.65 519.567Z" fill="#3F3D56"/>
<path d="M228.16 570.558C229.987 566.904 222.548 558.952 211.544 552.795C200.541 546.638 190.139 544.609 188.312 548.263C186.484 551.917 193.923 559.869 204.927 566.026C215.931 572.183 226.332 574.212 228.16 570.558Z" fill="#2F2E41"/>
<path d="M170.425 343.552C180.562 338.466 187.557 331.615 186.047 328.249C184.538 324.883 175.097 326.277 164.959 331.362C154.822 336.448 147.828 343.299 149.337 346.665C150.847 350.031 160.288 348.637 170.425 343.552Z" fill="#2F2E41"/>
<path d="M83.6051 369.189C90.8076 360.09 94.4572 350.776 91.7567 348.384C89.0561 345.993 81.0281 351.43 73.8255 360.529C66.623 369.627 62.9734 378.942 65.674 381.334C68.3745 383.725 76.4026 378.288 83.6051 369.189Z" fill="#2F2E41"/>
<path d="M121.93 400.371C144.369 400.371 162.56 381.131 162.56 357.397C162.56 333.664 144.369 314.424 121.93 314.424C99.4912 314.424 81.3008 333.664 81.3008 357.397C81.3008 381.131 99.4912 400.371 121.93 400.371Z" fill="#2F2E41"/>
<path d="M117.077 391.123H104.733V414.514H117.077V391.123Z" fill="#2F2E41"/>
<path d="M141.762 391.123H129.419V414.514H141.762V391.123Z" fill="#2F2E41"/>
<path d="M115.019 418.866C120.7 418.866 125.305 417.039 125.305 414.786C125.305 412.533 120.7 410.706 115.019 410.706C109.339 410.706 104.733 412.533 104.733 414.786C104.733 417.039 109.339 418.866 115.019 418.866Z" fill="#2F2E41"/>
<path d="M139.705 418.322C145.386 418.322 149.991 416.495 149.991 414.242C149.991 411.989 145.386 410.162 139.705 410.162C134.024 410.162 129.419 411.989 129.419 414.242C129.419 416.495 134.024 418.322 139.705 418.322Z" fill="#2F2E41"/>
<path d="M134.687 303.378C131.06 287.925 115.045 278.831 98.9188 283.066C82.7923 287.302 72.6601 303.262 76.288 318.716C79.9159 334.169 91.9521 334.219 108.079 329.984C124.205 325.748 138.315 318.831 134.687 303.378Z" fill="#F55053"/>
<path d="M128.004 362.657C135.485 362.657 141.55 356.242 141.55 348.329C141.55 340.417 135.485 334.002 128.004 334.002C120.523 334.002 114.458 340.417 114.458 348.329C114.458 356.242 120.523 362.657 128.004 362.657Z" fill="white"/>
<path d="M128.854 358.946C131.348 358.946 133.369 356.808 133.369 354.17C133.369 351.532 131.348 349.394 128.854 349.394C126.36 349.394 124.339 351.532 124.339 354.17C124.339 356.808 126.36 358.946 128.854 358.946Z" fill="#3F3D56"/>
<path d="M119.506 378.18C119.294 379.414 119.313 380.68 119.564 381.906C119.814 383.132 120.29 384.294 120.965 385.326C121.64 386.357 122.5 387.238 123.497 387.918C124.493 388.597 125.607 389.063 126.774 389.288C127.94 389.512 129.137 389.492 130.297 389.227C131.456 388.962 132.554 388.459 133.53 387.745C134.505 387.031 135.338 386.121 135.98 385.067C136.623 384.013 137.063 382.835 137.276 381.601L137.279 381.583C138.167 376.392 134.373 374.555 129.465 373.615C124.557 372.676 120.395 372.989 119.506 378.18Z" fill="white"/>
<path d="M649.877 620.629L20.8678 620.936C20.72 620.936 20.5736 620.906 20.4369 620.846C20.3002 620.787 20.176 620.699 20.0714 620.589C19.9667 620.479 19.8837 620.347 19.827 620.203C19.7704 620.059 19.7412 619.904 19.7412 619.748C19.7412 619.591 19.7704 619.437 19.827 619.292C19.8837 619.148 19.9667 619.017 20.0714 618.906C20.176 618.796 20.3002 618.708 20.4369 618.649C20.5736 618.589 20.72 618.559 20.8678 618.56L649.877 618.253C650.174 618.254 650.459 618.379 650.669 618.602C650.879 618.825 650.997 619.126 650.997 619.441C650.997 619.755 650.879 620.057 650.669 620.28C650.459 620.503 650.174 620.628 649.877 620.629Z" fill="#CACACA"/>
</g>
<defs>
<clipPath id="clip0_643_2">
<rect width="651" height="621" fill="white"/>
</clipPath>
</defs>
</svg>
